<?xml version="1.0" standalone="no"?>
<!DOCTYPE svg PUBLIC "-//W3C//DTD SVG 20010904//EN"
 "http://www.w3.org/TR/2001/REC-SVG-20010904/DTD/svg10.dtd">
<svg version="1.0" xmlns="http://www.w3.org/2000/svg"
 width="256.000000pt" height="256.000000pt" viewBox="0 0 256.000000 256.000000"
 preserveAspectRatio="xMidYMid meet">
<metadata>
Created by potrace 1.14, written by Peter Selinger 2001-2017
</metadata>
<g transform="translate(0.000000,256.000000) scale(0.100000,-0.100000)"
fill="#000000" stroke="none">
<path d="M1820 1705 c-122 -34 -175 -43 -195 -32 -30 16 -114 17 -158 1 -22
-8 -61 -30 -88 -49 l-48 -34 -65 29 c-115 53 -190 33 -220 -57 l-16 -49 -108
-44 c-122 -50 -299 -134 -387 -184 -56 -32 -61 -33 -88 -20 -190 99 -454 -154
-422 -405 4 -31 8 -92 9 -136 2 -86 10 -107 73 -178 40 -46 153 -137 170 -137
7 0 18 -9 25 -20 7 -11 16 -20 21 -20 4 0 5 5 1 12 -5 7 -3 8 7 2 8 -4 20 -9
27 -10 22 -4 27 -13 12 -27 -7 -6 -10 -7 -7 -2 3 7 -6 11 -24 10 -16 0 -31 -5
-33 -12 -4 -9 1 -10 19 -3 23 9 52 -8 40 -23 -3 -4 -2 -5 2 -2 3 3 12 0 20 -6
7 -6 13 -8 13 -4 0 4 8 1 17 -6 11 -10 14 -10 9 -1 -4 7 -1 12 8 12 18 0 21
-11 6 -26 -7 -7 -6 -11 4 -11 8 0 14 5 13 11 -1 6 7 12 18 12 11 1 25 3 30 4
6 1 14 2 19 1 5 -1 6 6 2 16 -6 17 -6 17 8 0 12 -16 15 -16 29 -2 17 16 28 20
26 8 -4 -22 3 -33 17 -33 14 0 15 2 3 18 -11 14 -10 14 8 -2 18 -15 23 -16 27
-5 13 41 14 43 15 22 1 -12 -4 -25 -9 -28 -6 -4 -8 -10 -6 -14 3 -4 -1 -8 -9
-8 -8 0 -11 5 -8 11 4 6 -1 5 -10 -3 -19 -15 -19 -15 -34 13 -10 18 -11 18
-32 -3 -20 -20 -21 -48 0 -35 5 3 7 9 4 14 -3 5 -1 11 4 14 5 4 13 1 17 -5 5
-8 3 -9 -5 -4 -10 6 -11 3 -2 -12 6 -11 7 -23 4 -27 -3 -3 -1 -6 6 -6 8 0 10
7 5 22 -6 20 -5 21 10 9 9 -7 16 -9 16 -3 0 15 30 8 42 -9 8 -12 9 -12 5 1 -2
8 2 27 9 41 7 15 11 29 9 33 -3 3 -2 4 2 1 3 -3 11 0 18 5 8 7 12 5 12 -5 0
-8 -5 -11 -10 -8 -5 3 -8 0 -5 -7 5 -16 36 -22 43 -10 3 5 12 7 20 3 8 -3 15
0 15 7 0 6 -4 8 -10 5 -5 -3 -10 -1 -10 4 0 15 15 14 29 -2 8 -11 6 -16 -12
-24 -12 -6 -30 -9 -40 -7 -11 1 -15 -2 -10 -9 5 -8 2 -8 -9 0 -8 7 -19 9 -23
5 -5 -4 -5 0 0 8 5 8 4 12 0 7 -5 -4 -10 -18 -12 -30 -2 -15 0 -18 6 -9 11 18
12 18 38 3 18 -9 22 -9 17 2 -3 8 2 14 11 14 9 0 14 -6 11 -12 -2 -6 2 -12 9
-12 7 0 10 8 7 19 -5 22 15 23 42 3 11 -8 25 -15 30 -15 6 0 4 4 -4 10 -8 5
-11 13 -6 17 4 4 13 0 21 -10 11 -16 13 -16 19 -2 4 11 2 14 -6 9 -7 -5 -8 -2
-3 7 5 8 5 11 0 7 -4 -4 -17 -3 -28 3 -15 9 -18 8 -12 -2 6 -8 4 -10 -5 -4 -9
6 -11 4 -5 -5 5 -8 4 -11 -2 -7 -14 9 -11 50 5 53 7 1 8 0 2 -3 -17 -8 -11
-19 10 -20 11 -1 18 2 15 8 -4 5 -1 9 4 9 6 0 11 -5 11 -11 0 -5 5 -7 10 -4 6
4 10 3 9 -2 -6 -23 50 -136 86 -175 58 -65 129 -90 210 -75 27 5 98 40 107 52
4 6 8 6 8 1 0 -5 6 -3 13 3 8 6 17 7 21 3 4 -4 6 -2 4 3 -2 6 15 29 36 53 103
111 171 263 178 398 2 27 9 55 16 62 15 17 16 36 0 26 -6 -4 -8 -3 -5 3 7 11
52 11 62 1 4 -4 2 -15 -5 -25 -10 -17 -11 -16 -5 3 4 14 1 21 -9 21 -9 0 -14
-9 -13 -21 1 -13 -3 -20 -11 -18 -8 1 -11 -2 -6 -9 5 -8 3 -9 -5 -4 -10 6 -11
3 -2 -13 6 -11 18 -22 28 -26 15 -5 15 -4 -1 9 -16 12 -17 18 -8 27 9 9 12 9
12 -2 0 -9 5 -8 16 6 15 19 16 19 9 0 -6 -19 -5 -19 13 -3 10 9 22 14 27 10 4
-5 5 -3 1 4 -4 7 -13 10 -21 6 -8 -3 -15 0 -15 6 0 6 9 11 20 11 11 0 20 4 20
10 0 5 -6 7 -14 4 -9 -3 -17 3 -21 15 -3 12 -11 18 -17 15 -6 -4 -8 -2 -5 4 4
5 15 9 25 8 9 -2 20 4 24 13 6 12 7 12 5 -4 -2 -11 -9 -19 -15 -18 -14 3 -16
-13 -3 -22 5 -3 20 9 32 27 36 51 69 66 66 29 0 -11 -5 -17 -11 -14 -5 4 -6 1
-1 -7 5 -7 4 -11 -1 -7 -5 3 -20 -1 -34 -10 -14 -8 -17 -12 -7 -9 11 4 16 2
12 -5 -4 -6 -14 -8 -24 -5 -12 5 -11 2 3 -9 23 -18 48 -3 39 23 -6 15 -5 15
10 3 9 -7 14 -18 10 -24 -3 -6 -1 -7 6 -3 8 6 9 12 2 20 -6 7 -8 16 -4 19 9
10 25 9 19 -1 -3 -5 1 -9 9 -9 11 0 12 4 4 13 -8 9 -5 16 10 24 12 6 21 16 21
22 0 7 -4 7 -13 0 -8 -7 -18 -7 -27 -2 -8 6 -10 10 -5 10 6 0 3 5 -5 10 -10 7
-11 10 -2 10 7 0 15 -7 18 -15 4 -8 10 -12 16 -9 5 3 4 11 -3 20 -7 8 -7 14
-1 14 5 0 12 -7 16 -15 3 -8 10 -15 16 -15 6 0 8 5 5 10 -6 9 8 14 28 11 12
-2 8 11 -10 32 -18 19 -17 19 5 6 12 -8 22 -20 22 -28 0 -11 3 -11 15 -1 8 7
15 9 15 4 0 -5 4 -3 9 5 10 16 31 6 31 -15 0 -8 -5 -12 -10 -9 -6 4 -7 11 -4
17 4 7 2 8 -5 4 -6 -4 -8 -12 -5 -18 5 -7 2 -8 -6 -3 -9 6 -11 4 -5 -6 8 -12
6 -12 -8 0 -15 12 -21 9 -18 -11 2 -14 -11 -9 -26 10 -14 16 -14 16 -9 0 3
-10 0 -20 -6 -24 -7 -5 -8 -2 -4 7 4 8 0 5 -8 -5 -9 -11 -16 -24 -16 -29 0 -4
-6 -5 -12 -1 -10 6 -10 5 -1 -8 7 -8 11 -18 8 -21 -3 -4 -2 -4 3 -1 7 5 8 9
11 37 1 8 4 7 11 -3 8 -13 10 -12 10 3 0 10 4 16 9 13 4 -3 17 1 27 8 16 12
23 12 49 0 25 -12 27 -12 13 -1 -24 19 -23 27 2 22 23 -4 23 -5 10 30 -8 20
-7 27 5 31 8 4 22 0 31 -7 13 -11 15 -9 10 17 -4 16 -3 22 0 14 4 -8 13 -18
20 -23 7 -4 11 -14 8 -21 -4 -9 3 -13 20 -13 14 0 26 3 26 8 0 4 -9 6 -20 4
-11 -2 -18 0 -15 5 3 5 1 18 -5 29 -5 11 -6 22 -2 25 15 9 52 -23 46 -39 -4
-8 -1 -15 6 -15 7 0 10 -7 7 -15 -4 -8 -1 -17 5 -21 7 -4 8 -3 4 4 -4 7 -4 12
-1 12 11 0 64 -43 60 -49 -5 -10 108 -7 123 3 7 4 16 6 19 3 2 -3 13 2 24 11
11 9 22 16 25 14 8 -5 62 57 104 122 86 128 116 281 79 393 -23 69 -46 99 -91
124 -23 12 -38 27 -38 38 0 38 -26 45 -81 22 -29 -11 -55 -21 -59 -21 -5 0
-21 28 -38 63 -36 76 -76 115 -167 163 -79 42 -146 50 -225 29z m-729 -126
c-9 -22 -10 -22 -10 -3 -1 11 2 24 6 27 12 12 14 0 4 -24z m177 -11 c50 -30
29 -47 -43 -34 -58 11 -62 15 -44 47 12 23 33 19 87 -13z m1051 -334 c-15 -18
-22 -13 -13 10 3 9 10 13 16 10 5 -3 4 -12 -3 -20z m47 1 c-4 -24 -16 -30 -16
-7 0 12 4 22 9 22 5 0 8 -7 7 -15z m-31 -45 c-5 -8 -11 -8 -17 -2 -6 6 -7 16
-3 22 5 8 11 8 17 2 6 -6 7 -16 3 -22z m62 -2 c-3 -8 -6 -5 -6 6 -1 11 2 17 5
13 3 -3 4 -12 1 -19z m-24 -223 c-3 -9 -8 -14 -10 -11 -3 3 -2 9 2 15 9 16 15
13 8 -4z m-128 -5 c3 -5 1 -10 -4 -10 -6 0 -11 5 -11 10 0 6 2 10 4 10 3 0 8
-4 11 -10z m81 -48 c-18 -16 -18 -16 -6 6 6 13 14 21 18 18 3 -4 -2 -14 -12
-24z m-76 -2 c0 -5 -2 -10 -4 -10 -3 0 -8 5 -11 10 -3 6 -1 10 4 10 6 0 11 -4
11 -10z m32 -12 c-7 -7 -12 -8 -12 -2 0 14 12 26 19 19 2 -3 -1 -11 -7 -17z
m-276 -20 c3 -4 -1 -5 -10 -4 -8 1 -18 5 -22 8 -3 4 1 5 10 4 8 -1 18 -5 22
-8z m-119 -23 c0 -8 -4 -12 -9 -9 -5 3 -6 10 -3 15 9 13 12 11 12 -6z m-33
-11 c3 -8 2 -12 -4 -9 -6 3 -10 10 -10 16 0 14 7 11 14 -7z m96 1 c0 -7 -30
-13 -34 -7 -3 4 4 9 15 9 10 1 19 0 19 -2z m-60 -25 c0 -5 -4 -10 -10 -10 -5
0 -10 5 -10 10 0 6 5 10 10 10 6 0 10 -4 10 -10z m-70 -20 c0 -5 -5 -10 -11
-10 -5 0 -7 5 -4 10 3 6 8 10 11 10 2 0 4 -4 4 -10z m-50 -64 c0 -3 -4 -8 -10
-11 -5 -3 -10 -1 -10 4 0 6 5 11 10 11 6 0 10 -2 10 -4z m-408 -338 c-7 -7
-12 -8 -12 -2 0 14 12 26 19 19 2 -3 -1 -11 -7 -17z m-621 -45 c13 -16 12 -17
-3 -4 -10 7 -18 15 -18 17 0 8 8 3 21 -13z m50 4 c-6 -8 -7 -18 -3 -22 4 -5 1
-5 -6 -1 -10 6 -10 11 -1 22 6 8 14 14 16 14 3 0 0 -6 -6 -13z m63 5 c3 -5 -1
-9 -9 -9 -8 0 -15 4 -15 9 0 4 4 8 9 8 6 0 12 -4 15 -8z m-454 -17 c-15 -18 1
-20 19 -2 11 10 13 10 7 0 -4 -8 -2 -13 5 -13 18 0 4 -11 -18 -14 -10 -2 -24
1 -31 7 -10 7 -8 13 5 23 24 18 28 17 13 -1z m753 0 c4 -8 2 -17 -3 -20 -6 -4
-10 3 -10 14 0 25 6 27 13 6z m177 -6 c-7 -11 -14 -18 -17 -15 -8 8 5 36 17
36 7 0 7 -6 0 -21z m-213 -14 c0 -8 -4 -12 -9 -9 -4 3 -8 9 -8 15 0 5 4 9 8 9
5 0 9 -7 9 -15z m-647 -5 c0 -5 -4 -10 -10 -10 -5 0 -10 5 -10 10 0 6 5 10 10
10 6 0 10 -4 10 -10z m35 0 c-3 -5 -12 -10 -18 -10 -7 0 -6 4 3 10 19 12 23
12 15 0z m235 0 c0 -5 -4 -10 -10 -10 -5 0 -10 5 -10 10 0 6 5 10 10 10 6 0
10 -4 10 -10z m452 -12 c-7 -7 -12 -8 -12 -2 0 14 12 26 19 19 2 -3 -1 -11 -7
-17z m32 -18 c-14 -27 -34 -41 -34 -23 0 6 40 53 46 53 1 0 -4 -13 -12 -30z
m47 -13 c-17 -17 -24 -1 -10 25 12 21 14 21 17 4 2 -10 -1 -23 -7 -29z m-101
15 c0 -13 -12 -22 -22 -16 -10 6 -1 24 13 24 5 0 9 -4 9 -8z"/>
<path d="M2030 840 c6 -11 15 -18 21 -15 13 9 11 13 -12 25 -19 11 -20 10 -9
-10z"/>
<path d="M1946 808 c10 -25 50 -47 65 -36 11 8 11 9 -3 4 -10 -3 -20 -1 -23 4
-4 6 -2 10 3 10 6 0 13 7 16 16 5 14 4 15 -8 5 -10 -8 -16 -9 -21 -1 -9 14
-35 13 -29 -2z"/>
<path d="M1957 755 c-4 -8 -3 -16 1 -19 4 -3 9 4 9 15 2 23 -3 25 -10 4z"/>
<path d="M1694 719 c-19 -22 -19 -22 3 -10 24 12 39 31 25 31 -5 0 -17 -10
-28 -21z"/>
<path d="M1873 733 c-17 -6 -17 -20 0 -20 8 0 14 6 14 14 0 7 -1 13 -1 12 -1
0 -7 -3 -13 -6z"/>
<path d="M1650 599 c0 -5 5 -7 10 -4 6 3 10 8 10 11 0 2 -4 4 -10 4 -5 0 -10
-5 -10 -11z"/>
<path d="M1550 559 c0 -5 5 -7 10 -4 6 3 10 8 10 11 0 2 -4 4 -10 4 -5 0 -10
-5 -10 -11z"/>
<path d="M229 403 c-13 -16 -12 -17 4 -4 9 7 17 15 17 17 0 8 -8 3 -21 -13z"/>
<path d="M270 396 c0 -2 7 -7 16 -10 8 -3 12 -2 9 4 -6 10 -25 14 -25 6z"/>
<path d="M246 382 c-3 -5 1 -9 9 -9 8 0 12 4 9 9 -3 4 -7 8 -9 8 -2 0 -6 -4
-9 -8z"/>
<path d="M509 291 c-1 -3 -1 -9 0 -13 0 -5 -3 -8 -9 -8 -5 0 -10 -5 -10 -12 0
-6 3 -8 7 -5 3 4 16 -1 27 -10 20 -17 21 -17 4 2 -16 17 -16 21 -3 35 13 15
13 17 0 17 -8 0 -16 -3 -16 -6z"/>
<path d="M390 286 c0 -2 7 -7 16 -10 8 -3 12 -2 9 4 -6 10 -25 14 -25 6z"/>
<path d="M470 279 c0 -5 5 -7 10 -4 6 3 10 8 10 11 0 2 -4 4 -10 4 -5 0 -10
-5 -10 -11z"/>
<path d="M665 220 c-3 -6 1 -7 9 -4 18 7 21 14 7 14 -6 0 -13 -4 -16 -10z"/>
</g>
</svg>
